<svg xmlns="http://www.w3.org/2000/svg" viewBox="0 0 128 128">
    <path fill="#007acc" d="M2 63.91v62.5h125v-125H2zm100.73-5a15.56 15.56 0 0 1 7.82 4.5 20.58 20.58 0 0 1 3 4.07c.05.08-5.32 3.75-8.57 5.53-.12.06-.6-.44-1.13-1.17a6.83 6.83 0 0 0-5.69-3.15c-3.64-.15-6 1.78-6 4.93a4.61 4.61 0 0 0 .49 2.28c.67 1.38 1.93 2.21 5.62 3.72 6.77 2.77 9.67 4.6 11.53 7.28a15.89 15.89 0 0 1 1.71 8.78 16.29 16.29 0 0 1-5.18 10.78 19.64 19.64 0 0 1-8.42 4.06c-1.31.31-4.5.38-6.06.13a19.85 19.85 0 0 1-11.55-6.13 14.12 14.12 0 0 1-2-3.09c.12-.1 1.14-.67 2.27-1.27L82.09 96l1.77-1 1.24 1.83a10.22 10.22 0 0 0 5.19 4.06c4 1.17 9.47.2 10.54-1.87a4.15 4.15 0 0 0-.29-4.15c-.85-1.2-2.44-2.09-6.65-3.72-4.81-1.87-6.89-3-8.83-4.72a15.24 15.24 0 0 1-3.55-5.85 20.59 20.59 0 0 1-.68-5.86c0-4.29 1-7.45 3.25-10.17a18.61 18.61 0 0 1 9.14-5.74c1.42-.39 5.34-.56 7-.31zM73 68.13l.06 3.63H53.71v31.09H44.1V71.76H24.77V68.2c0-2 .05-3.62.11-3.64s10.84-.06 24.06-.06l23.93.05z"/>
</svg>